<svg width="515" height="285" viewBox="0 0 515 285" fill="none" xmlns="http://www.w3.org/2000/svg">
<rect width="515" height="285" fill="white"/>
<path d="M180.915 167H152.341V117.679H155.041V164.505H180.915V167ZM187.375 130.188H190.041V167H187.375V130.188ZM188.708 121.165C188.116 121.165 187.614 120.96 187.204 120.55C186.794 120.14 186.589 119.65 186.589 119.08C186.589 118.488 186.794 117.986 187.204 117.576C187.614 117.166 188.116 116.961 188.708 116.961C189.3 116.961 189.813 117.166 190.246 117.576C190.656 117.986 190.861 118.488 190.861 119.08C190.861 119.65 190.656 120.14 190.246 120.55C189.813 120.96 189.3 121.165 188.708 121.165ZM203.2 120.721V130.188H210.856V132.513H203.2V158.558C203.2 160.745 203.633 162.317 204.499 163.274C205.319 164.231 206.664 164.71 208.532 164.71C210.264 164.71 211.198 164.687 211.335 164.642V167C211.062 167.046 210.013 167.068 208.19 167.068C205.502 167.068 203.565 166.419 202.38 165.12C201.172 163.799 200.568 161.634 200.568 158.626V132.513H195.168V130.188H200.568V120.721H203.2ZM230.134 132.103C226.306 132.103 223.173 133.447 220.734 136.136C218.296 138.825 216.975 142.368 216.77 146.766H243.19C243.168 142.413 241.96 138.882 239.567 136.17C237.152 133.458 234.007 132.103 230.134 132.103ZM245.446 156.712C244.831 159.879 243.202 162.454 240.559 164.437C237.801 166.465 234.429 167.479 230.441 167.479C225.406 167.479 221.429 165.815 218.513 162.488C215.528 159.139 214.035 154.524 214.035 148.646C214.035 142.949 215.516 138.369 218.479 134.905C221.418 131.442 225.314 129.71 230.168 129.71C234.908 129.71 238.713 131.339 241.584 134.598C244.455 137.833 245.891 142.129 245.891 147.483V149.021H216.735V149.158C216.735 154.126 217.989 158.034 220.495 160.882C222.956 163.685 226.283 165.086 230.476 165.086C233.757 165.086 236.514 164.288 238.747 162.693C240.866 161.189 242.199 159.196 242.746 156.712H245.446Z" fill="#3DA2F2"/>
<path d="M284.308 167H253.751V117.679H284.308V123.216H259.903V139.041H283.043V144.51H259.903V161.463H284.308V167ZM291.69 130.154H297.296V136.136H297.433C299.78 131.92 303.79 129.812 309.464 129.812C313.52 129.812 316.721 131.032 319.068 133.47C321.415 135.885 322.589 139.189 322.589 143.382V167H316.642V144.407C316.642 141.399 315.878 139.098 314.352 137.503C312.802 135.908 310.58 135.11 307.687 135.11C304.656 135.11 302.229 136.067 300.406 137.981C298.561 139.896 297.638 142.436 297.638 145.604V167H291.69V130.154ZM344.498 167.342C339.85 167.342 336.056 165.621 333.116 162.181C330.177 158.717 328.707 154.183 328.707 148.577C328.707 142.994 330.177 138.46 333.116 134.974C336.01 131.533 339.758 129.812 344.361 129.812C349.853 129.812 353.772 131.92 356.119 136.136H356.256V115.525H362.203V167H356.529V160.779H356.427C353.966 165.154 349.99 167.342 344.498 167.342ZM345.558 135.11C342.322 135.11 339.724 136.341 337.765 138.802C335.782 141.263 334.791 144.521 334.791 148.577C334.791 152.656 335.782 155.926 337.765 158.387C339.724 160.825 342.322 162.044 345.558 162.044C348.748 162.044 351.334 160.802 353.316 158.318C355.299 155.835 356.29 152.588 356.29 148.577C356.29 144.567 355.299 141.32 353.316 138.836C351.334 136.352 348.748 135.11 345.558 135.11Z" fill="#3DA2F2"/>
<path d="M395.263 71C394.916 71 394.593 71.0747 394.296 71.1743C394.928 71.5973 395.275 72.1573 395.449 72.792C395.461 72.8792 395.486 72.9415 395.498 73.0285C395.511 73.1032 395.523 73.1779 395.523 73.2525C395.573 74.3476 395.238 74.4845 395.002 75.1316C394.643 75.9655 394.742 76.8616 395.176 77.5833C395.213 77.6704 395.263 77.77 395.325 77.8571C394.854 74.7085 397.469 74.2356 397.953 73.2525C397.99 72.3939 397.283 71.8213 396.726 71.4232C396.192 71.0994 395.709 71 395.263 71ZM399.205 71.7093C399.155 71.9956 399.192 71.9209 399.18 72.0703C399.168 72.1699 399.168 72.2943 399.155 72.3939C399.13 72.4933 399.106 72.5929 399.068 72.6925C399.044 72.7922 399.006 72.8916 398.969 72.9912C398.92 73.0908 398.883 73.1779 398.833 73.2773C398.796 73.3272 398.771 73.3771 398.734 73.4268L398.659 73.5388C398.598 73.6259 398.535 73.7131 398.473 73.7876C398.399 73.8624 398.337 73.9495 398.25 74.0116V74.024C398.176 74.0864 398.102 74.1611 398.015 74.2232C397.755 74.4224 397.457 74.5716 397.184 74.7584C397.098 74.8205 397.011 74.8704 396.936 74.9451C396.849 75.0072 396.775 75.0693 396.701 75.1443C396.614 75.2188 396.552 75.2935 396.478 75.3807C396.416 75.4552 396.341 75.5426 396.292 75.6295C396.23 75.7167 396.168 75.8037 396.118 75.8908C396.069 75.9906 396.031 76.0775 395.982 76.1769C395.945 76.2767 395.907 76.3638 395.883 76.4632C395.845 76.5752 395.821 76.6748 395.796 76.7744C395.784 76.8243 395.784 76.8864 395.771 76.9363C395.759 76.986 395.759 77.0359 395.746 77.0856C395.746 77.1851 395.734 77.2971 395.734 77.3967C395.734 77.4714 395.734 77.546 395.746 77.6207C395.746 77.7203 395.759 77.8199 395.784 77.9319C395.796 78.0315 395.821 78.1308 395.845 78.2304C395.883 78.3302 395.907 78.4296 395.945 78.5292C395.969 78.5913 396.007 78.6536 396.031 78.7035L393.18 77.5959C392.704 77.4597 392.225 77.3352 391.743 77.2224L390.962 77.0359C390.218 76.8864 389.462 76.7744 388.706 76.6999C388.681 76.6999 388.668 76.6872 388.644 76.6872C387.906 76.6127 387.166 76.5753 386.425 76.5752C385.879 76.5752 385.334 76.6001 384.801 76.6374C384.045 76.6872 383.289 76.7868 382.532 76.9112C382.346 76.9363 382.16 76.9736 381.975 77.011C381.59 77.0856 381.218 77.1727 380.859 77.2599L380.301 77.4091C380.115 77.4839 379.941 77.571 379.768 77.6456L379.359 77.8323C379.334 77.8447 379.309 77.8447 379.297 77.8571C379.173 77.9193 379.061 77.9691 378.95 78.0313C378.92 78.0415 378.891 78.054 378.863 78.0687C378.727 78.1308 378.59 78.2056 378.479 78.2679C378.392 78.3052 378.305 78.3548 378.231 78.3921C378.195 78.415 378.158 78.4358 378.119 78.4544C378.008 78.5165 377.896 78.5788 377.797 78.6412C377.694 78.6977 377.595 78.7601 377.499 78.8279C377.413 78.89 377.326 78.9399 377.252 79.002C377.239 79.0144 377.227 79.0144 377.214 79.0269C377.14 79.0767 377.053 79.1389 376.979 79.2012L376.954 79.226L376.768 79.3753C376.743 79.3879 376.719 79.4127 376.694 79.4252C376.632 79.4749 376.57 79.5372 376.508 79.5871C376.495 79.6117 376.471 79.6243 376.458 79.6367C376.384 79.7115 376.309 79.7736 376.235 79.8483C376.223 79.8483 376.223 79.8608 376.21 79.8732C376.136 79.9353 376.062 80.01 375.987 80.0848C375.975 80.0972 375.975 80.1096 375.962 80.1096C375.9 80.1717 375.839 80.234 375.777 80.3088C375.752 80.3336 375.715 80.3585 375.69 80.3833C375.628 80.458 375.553 80.5328 375.479 80.6073C375.467 80.6323 375.442 80.6448 375.429 80.6696C375.33 80.7692 375.243 80.8688 375.144 80.9683L375.107 81.0056C374.909 81.2172 374.698 81.4288 374.475 81.6155C374.255 81.8124 374.023 81.9953 373.781 82.1631C373.54 82.3323 373.292 82.4901 373.037 82.6359C372.784 82.7752 372.523 82.8999 372.256 83.0092C371.992 83.1217 371.723 83.2214 371.45 83.308C370.93 83.42 370.396 83.6315 369.938 83.6688C369.839 83.6688 369.727 83.6937 369.628 83.7061C369.524 83.7297 369.421 83.7546 369.318 83.7808L369.021 83.8928C368.921 83.9301 368.822 83.98 368.723 84.0297C368.636 84.0918 368.537 84.1417 368.45 84.204C368.364 84.2661 368.277 84.3408 368.202 84.4156C368.116 84.4777 368.029 84.5648 367.955 84.6396C367.88 84.7267 367.806 84.8014 367.744 84.8884C367.682 84.988 367.608 85.0751 367.558 85.1745C367.496 85.2619 367.434 85.3613 367.384 85.4608C367.335 85.5728 367.285 85.6724 367.248 85.7846C367.209 85.8917 367.172 85.9995 367.136 86.108C367.112 86.2076 367.087 86.3072 367.074 86.4067C367.074 86.4192 367.062 86.4316 367.062 86.444C367.037 86.556 367.037 86.7055 367.025 86.78C367.012 86.8672 367 86.9419 367 87.0289C367 87.0787 367 87.1409 367.012 87.1907C367.025 87.2779 367.037 87.3526 367.062 87.4272C367.087 87.5019 367.112 87.5764 367.149 87.6512V87.6636C367.186 87.7383 367.236 87.8131 367.285 87.8876C367.335 87.9623 367.384 88.0371 367.446 88.1116C367.508 88.1737 367.583 88.2486 367.657 88.3108C367.731 88.3855 367.806 88.4476 367.893 88.5099C368.19 88.7712 368.265 88.8584 368.649 89.0575C368.711 89.0948 368.773 89.1196 368.847 89.1571C368.859 89.1571 368.872 89.1695 368.884 89.1695C368.884 89.1944 368.884 89.2068 368.897 89.2316C368.909 89.3314 368.934 89.4308 368.959 89.5304C368.983 89.6424 369.021 89.7419 369.058 89.8291C369.095 89.9038 369.12 89.9784 369.157 90.0531C369.169 90.0779 369.182 90.103 369.194 90.1152C369.244 90.215 369.294 90.3019 369.343 90.3891L369.529 90.6504C369.591 90.7251 369.665 90.8123 369.74 90.887C369.814 90.9615 369.888 91.0238 369.975 91.0984C369.975 91.0984 369.988 91.111 370 91.111C370.074 91.1731 370.149 91.2352 370.223 91.2851C370.31 91.3472 370.397 91.3971 370.496 91.447C370.583 91.4967 370.682 91.5466 370.781 91.5839C370.855 91.6211 370.942 91.646 371.029 91.671C371.041 91.6834 371.054 91.6834 371.078 91.6959C371.128 91.7083 371.19 91.7207 371.24 91.7331C371.202 92.4051 371.19 93.0399 371.289 93.2639C371.401 93.5127 371.946 92.7538 372.492 91.8826C372.417 92.7411 372.368 93.7492 372.492 94.0479C372.628 94.359 373.372 93.3883 374.016 92.318C382.805 90.2771 390.825 96.3751 391.668 104.987C391.507 103.643 389.859 102.896 389.102 103.083C388.73 104.004 388.098 105.186 387.082 105.92C387.168 105.099 387.131 104.253 386.958 103.431C386.685 104.576 386.152 105.647 385.421 106.567C384.243 106.655 383.066 106.082 382.446 105.223C382.396 105.186 382.384 105.111 382.347 105.062C382.309 104.975 382.272 104.887 382.247 104.8C382.211 104.717 382.186 104.629 382.173 104.539C382.161 104.452 382.161 104.365 382.161 104.265V104.079C382.173 103.991 382.198 103.904 382.222 103.817C382.247 103.73 382.272 103.643 382.309 103.556C382.359 103.469 382.396 103.381 382.458 103.295C382.669 102.697 382.669 102.212 382.284 101.925C382.21 101.877 382.131 101.835 382.049 101.801C381.999 101.789 381.937 101.764 381.888 101.751C381.851 101.739 381.826 101.726 381.789 101.714C381.702 101.689 381.615 101.664 381.528 101.652C381.444 101.627 381.356 101.615 381.268 101.614C381.181 101.602 381.082 101.589 380.995 101.589C380.933 101.589 380.871 101.602 380.809 101.602C380.71 101.602 380.623 101.615 380.537 101.639C380.45 101.652 380.363 101.664 380.276 101.689C380.19 101.714 380.103 101.739 380.016 101.776C379.929 101.813 379.855 101.851 379.768 101.888C379.694 101.925 379.619 101.975 379.533 102.013C376.644 103.904 378.367 108.335 380.338 109.617C379.594 109.753 378.838 109.915 378.628 110.077L378.603 110.102C379.136 110.426 379.694 110.699 380.276 110.936C381.07 111.197 381.913 111.433 382.284 111.533V111.545C383.311 111.757 384.362 111.832 385.408 111.769C390.9 111.384 395.4 107.19 396.218 101.664C396.242 101.776 396.267 101.876 396.292 101.988C396.329 102.212 396.379 102.448 396.404 102.685V102.697C396.428 102.809 396.441 102.921 396.453 103.021V103.071C396.466 103.183 396.478 103.295 396.478 103.394C396.49 103.531 396.503 103.668 396.503 103.805V104.004C396.503 104.066 396.515 104.141 396.515 104.203C396.515 104.278 396.503 104.352 396.503 104.427V104.601C396.503 104.688 396.49 104.763 396.49 104.85C396.49 104.9 396.49 104.95 396.478 105.012C396.478 105.099 396.465 105.186 396.465 105.286C396.453 105.323 396.453 105.36 396.453 105.398C396.441 105.497 396.428 105.584 396.416 105.684C396.416 105.721 396.416 105.759 396.403 105.796C396.391 105.92 396.366 106.032 396.354 106.157V106.182C396.329 106.294 396.304 106.418 396.279 106.53V106.568L396.205 106.904C396.205 106.916 396.193 106.941 396.193 106.953C396.168 107.065 396.143 107.177 396.106 107.29V107.327C396.069 107.451 396.032 107.563 396.007 107.675C395.994 107.688 395.994 107.7 395.994 107.7L395.883 108.073C395.833 108.198 395.796 108.31 395.746 108.434C395.697 108.559 395.66 108.683 395.61 108.795C395.56 108.92 395.511 109.032 395.461 109.156H395.449C395.399 109.268 395.35 109.393 395.288 109.505C395.277 109.534 395.265 109.564 395.25 109.592C395.238 109.604 395.238 109.617 395.226 109.629C394.42 111.259 393.23 112.69 391.743 113.81C391.643 113.873 391.544 113.947 391.445 114.022C391.42 114.047 391.383 114.059 391.358 114.084C391.271 114.146 391.185 114.209 391.086 114.271L391.123 114.346H391.135L391.656 114.271H391.668C391.991 114.221 392.313 114.159 392.635 114.097C392.722 114.084 392.821 114.059 392.908 114.035C392.97 114.022 393.019 114.01 393.081 113.997C393.168 113.985 393.255 113.96 393.342 113.947C393.416 113.922 393.49 113.91 393.565 113.885C394.804 113.586 396.007 113.176 397.16 112.69C395.189 115.391 392.548 117.569 389.462 119C390.887 118.9 392.313 118.664 393.689 118.266C398.684 116.785 402.887 113.412 405.403 108.87C404.892 111.751 403.753 114.484 402.068 116.872C403.27 116.076 404.38 115.15 405.378 114.109C408.155 111.197 409.977 107.501 410.597 103.531C411.02 105.501 411.141 107.523 410.956 109.53C419.906 96.9974 411.7 84.005 408.267 80.5826C408.254 80.5578 408.242 80.5454 408.242 80.5205C408.229 80.5329 408.229 80.5329 408.229 80.5454C408.229 80.5328 408.229 80.5328 408.217 80.5205C408.217 80.6698 408.204 80.8191 408.192 80.9685C408.155 81.2547 408.118 81.5285 408.068 81.8024C408.006 82.0761 407.932 82.3498 407.857 82.6237C407.769 82.8931 407.67 83.1587 407.56 83.42C407.446 83.6779 407.322 83.9312 407.188 84.1793C407.052 84.4157 406.903 84.6646 406.742 84.8886C406.582 85.12 406.413 85.3443 406.234 85.5606C406.047 85.7846 405.849 85.9838 405.651 86.1829C405.534 86.2901 405.414 86.3938 405.291 86.4939C405.192 86.581 405.105 86.6558 405.006 86.7429C404.783 86.9171 404.56 87.0789 404.312 87.2282C404.077 87.3775 403.829 87.5269 403.581 87.6514C403.32 87.7758 403.06 87.8878 402.8 87.9998C402.536 88.0999 402.267 88.1871 401.994 88.2611C401.72 88.3351 401.443 88.3974 401.163 88.4478C400.878 88.4977 400.593 88.5225 400.321 88.5474C400.122 88.5598 399.924 88.5722 399.726 88.5722C399.441 88.5722 399.155 88.5474 398.883 88.5225C398.598 88.4975 398.312 88.4602 398.04 88.3979C397.755 88.3482 397.482 88.2737 397.209 88.1865H397.197C397.47 88.1615 397.742 88.1366 398.015 88.0868C398.295 88.0378 398.572 87.9755 398.846 87.9002C399.118 87.8263 399.387 87.7391 399.651 87.6389C399.924 87.5392 400.184 87.4149 400.432 87.2903C400.692 87.1661 400.928 87.0291 401.176 86.8798C401.411 86.7179 401.647 86.556 401.87 86.3819C402.092 86.2086 402.303 86.0215 402.502 85.8219C402.713 85.6351 402.899 85.4238 403.085 85.212C403.266 84.9941 403.44 84.7699 403.605 84.54C403.63 84.5027 403.655 84.453 403.68 84.4157C403.804 84.2166 403.928 84.0174 404.039 83.8183C404.176 83.5715 404.3 83.3182 404.411 83.0591C404.523 82.7987 404.623 82.533 404.709 82.2629C404.796 82.0012 404.858 81.7275 404.919 81.4538C404.969 81.1677 405.019 80.8938 405.043 80.6199C405.068 80.3338 405.093 80.0477 405.093 79.7738C405.093 79.5746 405.081 79.3755 405.068 79.1763C405.044 78.8902 405.006 78.6163 404.969 78.3424C404.92 78.0617 404.858 77.7835 404.783 77.5087C404.696 77.2474 404.61 76.9736 404.511 76.7123C404.411 76.451 404.287 76.1895 404.163 75.9407C404.027 75.6918 403.891 75.4428 403.742 75.2066C403.584 74.9733 403.418 74.745 403.246 74.5219C403.059 74.3073 402.869 74.0957 402.676 73.8872C402.571 73.7805 402.464 73.6768 402.354 73.5762C401.798 73.1432 401.223 72.7362 400.63 72.3564C400.55 72.3101 400.468 72.2686 400.383 72.2322C399.974 71.9707 399.589 71.8339 399.205 71.7095L399.205 71.7093Z" fill="#3DA2F2"/>
</svg>
